<svg width="94" height="99" viewBox="0 0 94 99" fill="none" xmlns="http://www.w3.org/2000/svg">
<path d="M72.977 96.8882L39.2303 45.3882M92.1249 29.8721C92.1249 14.0098 79.266 1.15094 63.4038 1.15094C47.5415 1.15094 34.6826 14.0099 34.6826 29.8721C34.6826 45.7344 47.5415 58.5933 63.4038 58.5933C79.266 58.5933 92.1249 45.7344 92.1249 29.8721Z" stroke="#B6B6B6" stroke-width="2.3023" stroke-linecap="round"/>
<path d="M39.4457 96.8882L5.69903 45.3882M58.5937 29.8721C58.5937 14.0098 45.7348 1.15094 29.8725 1.15094C14.0103 1.15094 1.15136 14.0099 1.15136 29.8721C1.15136 45.7344 14.0103 58.5933 29.8725 58.5933C45.7348 58.5933 58.5937 45.7344 58.5937 29.8721Z" stroke="#B6B6B6" stroke-width="2.3023" stroke-linecap="round"/>
</svg>
